{
    "asset": {
        "copyright": "2019 (c) Adobe Inc.",
        "generator": "Adobe Dimension - 0897bb3786688dd8ac0e16e7ca439aa83b5dca11",
        "version": "2.0"
    },
    "accessors": [
        {
            "bufferView": 0,
            "componentType": 5126,
            "count": 1059,
            "type": "VEC3",
            "max": [
                25.192995071411134,
                27.863927841186525,
                29.31907844543457
            ],
            "min": [
                -18.66720962524414,
                -72.12615966796875,
                -10.835280418395996
            ]
        },
        {
            "bufferView": 1,
            "componentType": 5126,
            "count": 1059,
            "type": "VEC3"
        },
        {
            "bufferView": 2,
            "componentType": 5126,
            "count": 1059,
            "type": "VEC2"
        },
        {
            "bufferView": 3,
            "componentType": 5125,
            "count": 1698,
            "type": "SCALAR",
            "max": [
                842.0
            ],
            "min": [
                0.0
            ]
        },
        {
            "bufferView": 4,
            "componentType": 5125,
            "count": 546,
            "type": "SCALAR",
            "max": [
                1058.0
            ],
            "min": [
                843.0
            ]
        }
    ],
    "bufferViews": [
        {
            "buffer": 0,
            "byteOffset": 0,
            "byteLength": 12708,
            "target": 34962
        },
        {
            "buffer": 0,
            "byteOffset": 12708,
            "byteLength": 12708,
            "target": 34962
        },
        {
            "buffer": 0,
            "byteOffset": 25416,
            "byteLength": 8472,
            "target": 34962
        },
        {
            "buffer": 0,
            "byteOffset": 33888,
            "byteLength": 6792,
            "target": 34963
        },
        {
            "buffer": 0,
            "byteOffset": 40680,
            "byteLength": 2184,
            "target": 34963
        }
    ],
    "buffers": [
        {
            "byteLength": 42864,
            "uri": "car.bin"
        }
    ],
    "cameras": [
        {
            "perspective": {
                "znear": 0.00003490085146040656,
                "yfov": 0.6024156808853149,
                "zfar": 2.0,
                "aspectRatio": 1.3333333730697632
            },
            "type": "perspective",
            "name": "render_camera"
        }
    ],
    "materials": [
        {
            "pbrMetallicRoughness": {
                "baseColorFactor": [
                    0.1805332452058792,
                    0.5079857707023621,
                    0.800000011920929,
                    1.0
                ],
                "metallicFactor": 0.0,
                "roughnessFactor": 0.5
            },
            "name": "purple"
        },
        {
            "pbrMetallicRoughness": {
                "baseColorFactor": [
                    0.09548720717430115,
                    0.13563570380210877,
                    0.3343234360218048,
                    1.0
                ],
                "metallicFactor": 0.0,
                "roughnessFactor": 0.5
            },
            "name": "dark blue"
        }
    ],
    "meshes": [
        {
            "name": "CAR_03_3",
            "primitives": [
                {
                    "attributes": {
                        "TEXCOORD_0": 2,
                        "NORMAL": 1,
                        "POSITION": 0
                    },
                    "indices": 3,
                    "material": 0
                },
                {
                    "attributes": {
                        "POSITION": 0,
                        "NORMAL": 1,
                        "TEXCOORD_0": 2
                    },
                    "indices": 4,
                    "material": 1
                }
            ]
        }
    ],
    "nodes": [
        {
            "translation": [
                12.247149467468262,
                1.2144677639007569,
                -26.76641273498535
            ],
            "rotation": [
                0.010110712610185147,
                0.9751113653182983,
                -0.0454830564558506,
                0.21676446497440339
            ],
            "scale": [
                0.9999999403953552,
                1.0,
                0.9999999403953552
            ],
            "camera": 0,
            "name": "render_camera_n3d"
        },
        {
            "children": [
                2
            ],
            "translation": [
                -5.736880302429199,
                1.177008032798767,
                11.971235275268555
            ],
            "name": "car"
        },
        {
            "children": [
                3
            ],
            "translation": [
                -4.266393184661865,
                -1.1078746318817139,
                -5.3277201652526859
            ],
            "rotation": [
                0.7071068286895752,
                0.0,
                0.0,
                0.7071067094802856
            ],
            "scale": [
                0.009999999776482582,
                0.009999998845160008,
                0.009999998845160008
            ],
            "name": "City"
        },
        {
            "children": [
                4
            ],
            "translation": [
                57.57023239135742,
                -387.38714599609377,
                -20.08391571044922
            ],
            "name": "Cars"
        },
        {
            "translation": [
                937.8624877929688,
                -168.7751922607422,
                13.134469032287598
            ],
            "rotation": [
                -3.009033022749463e-8,
                -1.5988449453274712e-9,
                2.3283055483602767e-8,
                1.0
            ],
            "scale": [
                1.5000003576278687,
                1.499999761581421,
                1.4999992847442628
            ],
            "mesh": 0,
            "name": "CAR_03_3"
        }
    ],
    "scenes": [
        {
            "nodes": [
                0,
                1
            ],
            "name": "scene"
        }
    ],
    "scene": 0,
    "extensions": {
        "KHR_xmp": {
            "packets": [
                {
                    "dc:date": "2020-05-21T15:27:24.436+08:00",
                    "dc:format": "model/gltf+json",
                    "dc:title": "未命名.dn",
                    "xmp:CreatorTool": "Adobe Dimension"
                }
            ]
        }
    },
    "extensionsUsed": [
        "KHR_xmp"
    ]
}